<?xml version="1.0" encoding="utf-8"?>
<!-- Generator: Adobe Illustrator 25.0.0, SVG Export Plug-In . SVG Version: 6.00 Build 0)  -->
<svg version="1.1" id="Layer_1" xmlns="http://www.w3.org/2000/svg" xmlns:xlink="http://www.w3.org/1999/xlink" x="0px" y="0px"
	 viewBox="0 0 16.5 17.1" style="enable-background:new 0 0 16.5 17.1;" xml:space="preserve">
<style type="text/css">
	.st0{fill:#5A62CC;}
</style>
<path class="st0" d="M16.4,11.8c-1.8,4.4-6.9,6.4-11.2,4.6S-1.2,9.5,0.6,5.2C1.8,2.4,4.4,0.4,7.5,0C7.7,0,7.9,0.1,8,0.3
	c0.1,0.2,0.1,0.4-0.1,0.6C6.7,2.1,6,3.8,6,5.5C6,9.1,9,12,12.6,12c1.1,0,2.1-0.3,3.1-0.8c0.2-0.1,0.4-0.1,0.6,0.1
	C16.4,11.4,16.5,11.6,16.4,11.8z"/>
</svg>
