<?xml version="1.0" encoding="utf-8"?>
<!-- Generator: Adobe Illustrator 25.0.0, SVG Export Plug-In . SVG Version: 6.00 Build 0)  -->
<svg version="1.1" id="Capa_1" xmlns="http://www.w3.org/2000/svg" xmlns:xlink="http://www.w3.org/1999/xlink" x="0px" y="0px"
	 viewBox="0 0 511.4 512" style="enable-background:new 0 0 511.4 512;" xml:space="preserve">
<style type="text/css">
	.st0{fill:#32B68A;}
</style>
<g>
	<g>
		<path class="st0" d="M255.7,106c-82.7,0-150,67.3-150,150s67.3,150,150,150s150-67.3,150-150S338.4,106,255.7,106z"/>
	</g>
</g>
<g>
	<g>
		<path class="st0" d="M411.4,346c-15.6,27.3-38.7,50.1-66,66l90.3,24.3L411.4,346z"/>
	</g>
</g>
<g>
	<g>
		<path class="st0" d="M255.7,0l-46.2,82.3c14.7-4.2,30.3-6.3,46.2-6.3s31.5,2.1,46.2,6.3L255.7,0z"/>
	</g>
</g>
<g>
	<g>
		<path class="st0" d="M75.7,76l24.3,90c15.6-27.3,38.1-49.8,65.4-65.7L75.7,76z"/>
	</g>
</g>
<g>
	<g>
		<path class="st0" d="M82,209.5L0,256l82,46.5c-4.2-14.7-6.3-30.3-6.3-46.5S77.8,224.2,82,209.5z"/>
	</g>
</g>
<g>
	<g>
		<path class="st0" d="M100,346l-24.3,90.3L166,412C138.7,396.1,115.6,373.3,100,346z"/>
	</g>
</g>
<g>
	<g>
		<path class="st0" d="M255.7,436c-16.2,0-31.8-2.1-46.8-6.3l46.8,82.3l46.8-82.3C287.5,433.9,271.9,436,255.7,436z"/>
	</g>
</g>
<g>
	<g>
		<path class="st0" d="M345.9,100.5c27.1,15.8,49.8,38.4,65.5,65.6l24.4-90L345.9,100.5z"/>
	</g>
</g>
<g>
	<g>
		<path class="st0" d="M511.4,256.1l-82-46.4c3.9,14.8,6.2,30.2,6.2,46.2c0,16.1-2.3,31.7-6.3,46.6L511.4,256.1z"/>
	</g>
</g>
</svg>
